<?xml version="1.0" standalone="no"?>
<!DOCTYPE svg PUBLIC "-//W3C//DTD SVG 20010904//EN"
 "http://www.w3.org/TR/2001/REC-SVG-20010904/DTD/svg10.dtd">
<svg version="1.0" xmlns="http://www.w3.org/2000/svg"
 width="629.000000pt" height="629.000000pt" viewBox="0 0 629.000000 629.000000"
 preserveAspectRatio="xMidYMid meet">
<metadata>
Created by potrace 1.14, written by Peter Selinger 2001-2017
</metadata>
<g transform="translate(0.000000,629.000000) scale(0.100000,-0.100000)"
fill="#000000" stroke="none">
<path d="M2887 4693 c-2 -4 -8 -29 -11 -55 -6 -39 -4 -48 8 -48 10 0 17 15 21
45 4 24 7 48 7 52 -1 11 -19 15 -25 6z"/>
<path d="M2687 4684 c-6 -6 11 -64 23 -78 17 -18 29 4 19 34 -11 31 -32 53
-42 44z"/>
<path d="M2506 4561 c-7 -11 7 -23 62 -50 46 -24 58 -22 48 5 -4 9 -12 14 -22
10 -8 -3 -13 -2 -10 2 3 5 -11 16 -30 25 -40 20 -41 20 -48 8z"/>
<path d="M3418 4563 c-10 -2 -18 -9 -18 -14 0 -5 -6 -9 -13 -9 -22 0 -185
-182 -257 -286 -8 -12 -44 -64 -79 -115 -35 -52 -67 -96 -71 -99 -4 -3 -17
-24 -29 -47 -12 -24 -28 -43 -35 -43 -8 0 -25 23 -37 50 -12 28 -25 50 -28 50
-3 0 -6 13 -6 29 0 16 3 27 8 24 13 -8 8 45 -8 85 -19 45 -80 107 -96 96 -8
-4 -9 -3 -5 4 5 9 -13 12 -64 12 -44 0 -69 -4 -65 -10 3 -5 0 -7 -7 -5 -21 8
-85 -65 -98 -112 -16 -64 2 -118 57 -171 24 -23 57 -45 73 -48 25 -5 30 -13
40 -53 6 -25 13 -64 16 -86 8 -55 30 -143 66 -253 16 -52 31 -103 33 -114 8
-38 16 -58 25 -58 5 0 7 -7 4 -15 -4 -8 -1 -15 5 -15 6 0 10 -3 9 -7 -11 -34
119 -260 161 -283 21 -11 154 6 159 20 2 5 9 7 15 4 7 -2 56 11 109 29 l97 33
56 -28 c50 -26 92 -31 143 -19 1 1 2 12 2 25 0 18 -9 27 -40 40 -45 18 -50 32
-17 47 18 8 33 5 74 -15 54 -27 101 -33 134 -16 15 9 17 15 9 30 -10 19 -61
52 -77 49 -42 -7 -42 13 -2 59 l31 35 -49 30 c-200 127 -369 239 -407 272 -15
13 -33 26 -39 28 -7 2 -9 7 -6 10 6 8 237 67 259 67 26 0 134 56 159 83 24 26
36 76 25 109 -3 10 -10 16 -15 13 -5 -3 -6 0 -3 8 3 8 16 20 30 28 52 27 66
88 38 159 l-16 40 41 49 c56 67 73 140 45 196 -27 56 -66 64 -135 30 -28 -15
-53 -24 -55 -22 -3 2 -7 15 -9 28 -9 46 -39 74 -81 76 -21 0 -47 -1 -56 -4z
m84 -30 c13 -11 18 -30 18 -65 0 -45 -4 -53 -37 -81 -96 -83 -158 -140 -281
-256 -200 -188 -236 -221 -244 -221 -23 0 -4 34 97 183 44 65 85 126 90 135 6
9 18 25 29 36 10 12 37 46 59 76 23 30 72 86 109 123 87 87 124 103 160 70z
m226 -75 c17 -21 16 -80 0 -118 -17 -36 -82 -110 -98 -110 -5 0 -2 -13 8 -29
9 -16 19 -28 22 -26 4 3 5 -40 1 -103 -1 -17 -12 -28 -45 -43 l-44 -19 19 -37
c25 -49 24 -62 -6 -103 -14 -19 -25 -31 -25 -27 0 3 -26 -6 -57 -20 -32 -14
-65 -27 -73 -28 -8 -2 -46 -11 -85 -20 -38 -8 -81 -17 -95 -19 -14 -1 -45 -6
-70 -10 -43 -7 -47 -5 -97 38 -28 26 -55 46 -60 46 -4 0 -16 12 -26 26 l-19
25 86 80 c47 45 84 85 80 90 -3 5 1 9 8 9 7 1 32 18 54 38 273 246 337 302
346 302 5 0 6 5 2 12 -4 6 -3 8 4 4 6 -3 14 -1 17 5 25 39 130 65 153 37z
m-995 -192 c18 -7 45 -30 61 -51 49 -63 32 -157 -36 -208 -42 -32 -116 -28
-162 7 -45 34 -70 78 -53 95 8 8 8 11 -2 11 -22 0 -3 71 27 104 49 52 106 67
165 42z m118 -278 c19 -46 269 -291 313 -307 6 -2 29 -19 51 -37 88 -71 408
-278 417 -269 2 2 4 -4 5 -15 3 -31 -68 -85 -182 -139 -58 -28 -112 -51 -120
-51 -7 0 -16 -4 -20 -10 -3 -5 -13 -6 -22 -3 -9 4 -14 2 -11 -3 3 -5 -10 -9
-29 -10 -19 0 -38 -5 -41 -10 -4 -5 -11 -9 -17 -9 -5 0 -47 -9 -93 -19 l-82
-19 -25 23 c-14 13 -25 27 -25 32 0 4 -12 25 -28 47 -15 21 -36 58 -46 82 -10
24 -25 60 -34 79 -9 19 -16 37 -16 40 -1 3 -13 43 -28 90 -33 104 -77 258 -82
285 -2 11 -11 53 -20 93 -21 94 -21 89 17 101 19 7 44 23 55 36 29 34 47 31
63 -7z"/>
<path d="M2725 4538 c-28 -15 -55 -50 -55 -70 -1 -74 113 -153 220 -153 52 0
63 4 90 30 57 55 30 124 -71 174 -66 33 -144 41 -184 19z m145 -29 c3 -4 24
-16 47 -27 23 -12 44 -31 48 -42 3 -11 10 -20 15 -20 15 0 -2 -40 -23 -55 -55
-39 -223 6 -247 65 -25 60 13 91 105 87 28 -1 52 -5 55 -8z"/>
<path d="M3080 4538 c-43 -12 -64 -28 -52 -40 11 -11 118 23 115 37 -3 14 -22
15 -63 3z"/>
<path d="M3054 4369 c-7 -12 1 -22 19 -25 7 -1 19 -5 28 -9 16 -6 37 11 26 21
-12 12 -67 22 -73 13z"/>
<path d="M5581 2660 l-1 -80 80 0 80 0 0 79 0 79 -79 1 -79 1 -1 -80z"/>
<path d="M592 2617 l-52 -53 0 -322 0 -322 80 0 80 0 0 145 0 145 240 0 240 0
0 -144 0 -143 85 -2 85 -2 0 318 0 319 -57 56 -58 57 -296 0 -295 0 -52 -52z
m588 -182 l0 -65 -240 0 c-269 0 -242 -9 -242 75 0 19 1 40 1 45 1 6 88 10
241 10 l240 0 0 -65z"/>
<path d="M3770 2295 l0 -375 80 0 80 0 0 375 0 375 -80 0 -80 0 0 -375z"/>
<path d="M1610 2425 l0 -85 175 0 175 0 0 -210 0 -210 80 0 80 0 0 245 c0 211
-2 245 -15 245 -8 0 -15 4 -15 9 0 5 -19 28 -42 50 l-43 41 -197 0 -198 0 0
-85z"/>
<path d="M2390 2425 l0 -85 169 0 c148 0 170 -2 173 -16 2 -9 2 -65 0 -125
l-3 -109 -175 0 -174 0 0 120 0 120 -80 0 -80 0 0 -153 0 -153 53 -52 52 -52
210 -2 c202 -3 210 -4 210 -23 0 -19 -8 -20 -207 -23 l-208 -2 0 -81 0 -80
233 1 232 1 53 52 52 51 0 348 0 348 -255 0 -255 0 0 -85z"/>
<path d="M3047 2452 l-57 -58 0 -180 0 -180 58 -57 58 -57 282 0 282 0 0 85 0
85 -255 0 -255 0 0 50 0 50 255 0 255 0 0 108 c0 101 -2 110 -23 130 -13 12
-27 19 -31 15 -4 -5 -6 -1 -4 7 2 9 -3 14 -12 12 -8 -2 -12 0 -7 4 4 4 0 16
-10 26 -15 16 -36 18 -247 18 l-232 0 -57 -58z"/>
<path d="M4030 2403 l0 -107 40 -41 40 -41 -40 -39 -40 -39 0 -108 0 -108 80
0 80 0 0 105 0 105 180 0 180 0 0 -105 0 -105 79 0 79 0 0 104 0 103 -39 39
c-21 21 -39 43 -39 50 0 6 18 28 40 48 l40 36 0 105 0 105 -80 0 -80 0 0 -105
0 -105 -180 0 -180 0 0 105 0 105 -80 0 -80 0 0 -107z"/>
<path d="M4800 2272 l0 -239 59 -56 60 -57 200 0 201 0 0 -25 0 -25 -205 0
-205 0 0 -80 0 -80 231 0 c140 0 238 4 250 10 13 7 19 7 19 0 0 -6 42 -10 113
-10 l113 0 52 52 52 52 0 348 0 348 -80 0 -80 0 0 -320 0 -320 -50 0 -50 0 -1
198 c0 108 0 252 1 320 l1 122 -81 0 -81 0 1 -87 c1 -49 1 -143 1 -210 l-1
-123 -175 0 -175 0 0 210 0 210 -85 0 -85 0 0 -238z"/>
<path d="M1440 2125 l0 -205 79 0 80 0 1 205 1 205 -81 0 -80 0 0 -205z"/>
</g>
</svg>
